<?xml version="1.0" encoding="UTF-8"?>
<svg id="Layer_1" data-name="Layer 1" xmlns="http://www.w3.org/2000/svg" viewBox="0 0 612 485.55">
  <path d="M229.03,298.09v-31.79l-1.01,1.31s-.8,6.24-1.51,8.15c0,0-.17,.23,0,.66s1.15,1.66,.68,3.02l-.75-.17s-.23,.72,.33,.94-.26,.89-1.11,.77-1.92-.94-1.49-4.39l-.1-.94s-.67-4.43,.65-9.71l-.09-1.36h-.34s1.83-8.01,4.22-9.75,4.47-1.19,5.32-2.73v-2.09s-4.26-1.92-4.26-7.96,6.73-5.88,8.48-5.37,3.79,1.87,4.09,3.92-.09,3.28,.38,3.75,.3,1.53,0,2.3c0,0,0,3.19-4.05,4.34v1.19s.3,.77,1.49,1.11,4.98,.43,6.43,5.24,1.79,4.39,1.79,4.39l3.75-1.66s.85-.51,.89-1.19-.43-1.62,.38-3.62c0,0,.3-1.02,0-2.39s.68-14.23,1.92-18.4,.72-5.24,.72-5.24h-.64s1.75-11.93,3.75-14.65,3.79-3.28,10.82-5.88c0,0,2.47-.81,2.34-4.22,0,0-1.15-.3-2.09-3.88,0,0-1.28-.47-1.58-2.43s.6-1.83,.6-1.83v-3.83s.55-5.45,6.94-5.45,6.86,5.58,6.86,5.58v3.32s.68,.21,.72,.94-.38,3.32-1.28,3.62c0,0-.85,3.71-2.43,4.43v1.36s.47,2,3.71,3.02,8.6,2.73,10.09,7.58,2.6,12.22,2.6,12.22l-.43,.26,.43,3.07s2.64,10.39,3.15,16.57c0,0,.43,.64,.85-.17s1.19-6.3,2.94-9.75,1.58-15.72,5.32-18.44,7.54-1.15,8.43-4.81v-1.53s.04-.72-.94-.77-2.64,.34-3.11-3.19l-.3-1.15-1.02-1.49s.17-.68,1.41-2.17v-2.98s.6-6.05,7.92-6.09,8.48,7.58,8.48,7.58l.34,7.07s1.19,5.71,5.15,4.86c0,0-.21,2.17-4.09,2.9v.38s3.71,.3,5.2,9.71,2.04,10.52,2.04,10.52c0,0,2.6,7.92,3.54,13.67,0,0,.17,.98,0,1.58,0,0,1.41,3.07,1.11,4.81l3.49,1.75s.81-.04,.89-.77,1.32-9.84,6.01-10.31,2.85-3.92,2.85-3.92c0,0-2.94,.72-3.83-1.79s-.68-2.73-.68-2.73l-.77-.21s.55-1.66,.98-2-1.06-6.35,3.75-7.96c4.81-1.62,9.54,.72,10.52,4.6,0,0,.13,.68,1.19,.21s5.45-.64,5.58,4.51c.13,5.15-1.75,10.73,1.83,10.9,0,0-.51,2.73-4.94-.13s.98-12.1-3.19-13.12c0,0-.04,5.58-5.58,7.41,0,0-.68,2.85,1.19,3.54s6.05,.38,7.92,10.82h-.47s2.39,8.39,1.96,12.52l-2.64,1.02s-.17-3.24-1.19-6.39-2.13-5.79-2.13-5.79c0,0-.81-.17-.55,.47s-.26,4.98,.89,8.69,.77,4.09,.77,4.09l-18.1,6.9s1.79-10.73,2.51-12.9,.51-6.47,.34-6.98-.81-.43-.98,.21-.68,3.92-3.41,3.96c0,0-.77,.89-5.28-4.43,0,0-1.96,1.06-2.94-.98-.98-2.04-.72-3.41-.13-5.2s-1.62-2.51-4.17-10.31-3.02-10.78-3.75-11.24-.72,.81-.72,.81c0,0-2,7.11-.04,11.76s5.32,25.17,5.32,25.17l1.36,7.79-7.07,1.53-.38,6.77-7.37,1.96-.38-7.88-1.92-.21-.51,9.07-7.03,1.24-.72-11.03-7.37-1.24s4.22-20.4,4.22-21.34,2.98-10.69,3.36-13.42-.17-9.46-.64-10.48-.94,.98-1.28,2.85-2.39,9.67-7.45,16.53c0,0,1.41,5.45-3.07,6.64,0,0-3.28,.26-2.21-6.64,0,0-7.07-15.72-7.92-23h-.72s-.34,19.93,.51,23.38l-.64,.34-1.1,42.29-8.45,1.13-1.86-35.39h-1.29l-2.01,35.39h-8.31l-1.15-42.98-.86-.43s1.72-12.75,1-23.78h-1.29s-.32,1.36-1.07,5.87-4.62,16.82-4.62,16.82c0,0,1.24,4.3,1.07,5.53s-.75,3.65-3.06,2.95c0,0-.86-.64-1.29-.05s-4.3,4.46-6.5,4.84-2.63-4.57-3.33-2.31l.91,13.59-.64,.05,.59,20.79-5.75-.54-1.77-13.48-.75,.05-1.56,13.11-5.86-1.16Z" fill="#013c6a"/>
  <rect x="283.87" y="150.08" width="14.18" height="14.18" rx="3.44" ry="3.44" fill="#013c6a"/>
  <rect x="283.87" y="169.17" width="14.18" height="14.18" rx="3.44" ry="3.44" fill="#013c6a"/>
  <rect x="301.63" y="150.08" width="14.18" height="14.18" rx="3.44" ry="3.44" fill="#013c6a"/>
  <rect x="301.63" y="169.17" width="14.18" height="14.18" rx="3.44" ry="3.44" fill="#013c6a"/>
  <rect x="298.67" y="405.6" width="6.47" height="6.47" fill="#30bac6"/>
  <rect x="298.67" y="414.31" width="6.47" height="6.47" fill="#30bac6"/>
  <rect x="306.78" y="405.6" width="6.47" height="6.47" fill="#30bac6"/>
  <rect x="306.78" y="414.31" width="6.47" height="6.47" fill="#30bac6"/>
  <polygon points="215.67 295.35 206.5 291.92 206.5 198.22 184.15 198.22 232.86 158.39 232.86 128.59 230.57 128.59 230.57 122.58 254.64 122.58 254.64 128.88 251.77 128.88 251.77 142.92 299.21 107.68 413.95 197.93 391.31 197.93 391.31 266.41 382.72 269.57 382.72 191.63 391.6 191.63 299.21 124.87 207.94 191.06 215.67 191.06 215.67 295.35" fill="#037aa6"/>
  <path d="M172.12,282.46s57.88,46.99,173.06,6.3c0,0-99.14,67.62-173.06-6.3Z" fill="#037aa6"/>
  <path d="M292.75,318.56s18.05,.57,73.07-34.1c0,0,43.27-26.65,76.22-8.6,0,0-26.93-9.14-66.47,18.21-39.54,27.35-84.24,24.48-84.24,24.48" fill="#00559c"/>
  <path d="M350.63,314.55s15.08-3.37,37.11-18.73c22.03-15.37,46.74-14.08,46.74-14.08,0,0-11.07-3.55-41.37,19.23,0,0-11.89,9.96-42.48,13.57Z" fill="#09a1be"/>
  <path d="M190.24,281.54s-67.69-84.9,18.05-175.16c0,0,79.63-78.35,170.49-7.1,.17,.13,.38-.09,.23-.24-10.3-10.88-76.65-73.39-177.17,3.47,0,0,0,0,0,0-.37,.32-87.52,77.18-11.6,179.02Z" fill="#09a1be"/>
  <path d="M403.35,87.77s-1.19,25.99,22.7,25.39c0,0-22.42-2.09-22.71,24.49,0,0,3.15-24.79-22.91-24.94,0,0,25.31,1.64,22.92-24.94Z" fill="#30bac6"/>
  <path d="M432.47,135.86s-.77,16.65,14.54,16.27c0,0-14.37-1.34-14.55,15.69,0,0,2.02-15.88-14.68-15.98,0,0,16.22,1.05,14.69-15.98Z" fill="#079eb6"/>
  <path d="M381.96,132.31s-.47,10.17,8.89,9.94c0,0-8.78-.82-8.89,9.59,0,0,1.23-9.71-8.97-9.76,0,0,9.91,.64,8.97-9.76Z" fill="#079eb6"/>
  <path d="M352.7,100.05s-.47,10.17,8.89,9.94c0,0-8.78-.82-8.89,9.59,0,0,1.23-9.71-8.97-9.76,0,0,9.91,.64,8.97-9.76Z" fill="#0268a5"/>
  <path d="M416.63,170.16s-.37,7.95,6.94,7.77c0,0-6.86-.64-6.95,7.49,0,0,.96-7.58-7.01-7.63,0,0,7.74,.5,7.01-7.63Z" fill="#0268a5"/>
  <path d="M466.46,381.47s-.37,7.95,6.94,7.77c0,0-6.86-.64-6.95,7.49,0,0,.96-7.58-7.01-7.63,0,0,7.74,.5,7.01-7.63Z" fill="#0268a5"/>
  <path d="M152.25,381.47s-.37,7.95,6.94,7.77c0,0-6.86-.64-6.95,7.49,0,0,.96-7.58-7.01-7.63,0,0,7.74,.5,7.01-7.63Z" fill="#0268a5"/>
  <text transform="translate(125.49 371.48)" fill="#023b6b" font-family="MinionVariableConcept-Roman, &apos;Minion Variable Concept&apos;" font-size="72.76" font-variation-settings="&apos;wght&apos; 400, &apos;opsz&apos; 11"><tspan x="0" y="0" letter-spacing="-.02em">S</tspan><tspan x="34.56" y="0" letter-spacing="0em">t</tspan><tspan x="56.25" y="0" letter-spacing="0em">r</tspan><tspan x="82.66" y="0">ess </tspan><tspan x="185.33" y="0" letter-spacing=".02em">R</tspan><tspan x="231.6" y="0">el</tspan><tspan x="281.96" y="0" letter-spacing="0em">ie</tspan><tspan x="332.53" y="0">f</tspan></text>
  <text transform="translate(168.32 396.73)" fill="#30bac6" font-family="Poppins-SemiBold, Poppins" font-size="21.88" font-weight="600"><tspan x="0" y="0">FAMILY CLEANING SERVICE</tspan></text>
  <ellipse cx="237.09" cy="413.79" rx="53.29" ry=".52" fill="#30bac6"/>
  <ellipse cx="375.7" cy="413.79" rx="53.29" ry=".52" fill="#30bac6"/>
</svg>