<svg xmlns="http://www.w3.org/2000/svg" viewBox="0 0 100 100">
  <!-- Brand navy rounded-square background -->
  <rect width="100" height="100" rx="18" fill="#013c6a"/>
  <!-- House + family figures extracted from logo, recolored white so they're
       visible on the navy background (in the source logo the family is navy
       #013c6a and disappears against this fill).
       Combined bounds: x 184.2–413.9, y 107.7–300.1 → scale 0.322, centered. -->
  <g transform="translate(13 19) scale(0.322) translate(-184.2 -107.7)">
    <!-- House roof/wall outline -->
    <polygon
      points="215.67 295.35 206.5 291.92 206.5 198.22 184.15 198.22 232.86 158.39
              232.86 128.59 230.57 128.59 230.57 122.58 254.64 122.58 254.64 128.88
              251.77 128.88 251.77 142.92 299.21 107.68 413.95 197.93 391.31 197.93
              391.31 266.41 382.72 269.57 382.72 191.63 391.6 191.63 299.21 124.87
              207.94 191.06 215.67 191.06 215.67 295.35"
      fill="#30bac6"
    />
    <!-- Family figures (the three people) -->
    <path d="M229.03,298.09v-31.79l-1.01,1.31s-.8,6.24-1.51,8.15c0,0-.17,.23,0,.66s1.15,1.66,.68,3.02l-.75-.17s-.23,.72,.33,.94-.26,.89-1.11,.77-1.92-.94-1.49-4.39l-.1-.94s-.67-4.43,.65-9.71l-.09-1.36h-.34s1.83-8.01,4.22-9.75,4.47-1.19,5.32-2.73v-2.09s-4.26-1.92-4.26-7.96,6.73-5.88,8.48-5.37,3.79,1.87,4.09,3.92-.09,3.28,.38,3.75,.3,1.53,0,2.3c0,0,0,3.19-4.05,4.34v1.19s.3,.77,1.49,1.11,4.98,.43,6.43,5.24,1.79,4.39,1.79,4.39l3.75-1.66s.85-.51,.89-1.19-.43-1.62,.38-3.62c0,0,.3-1.02,0-2.39s.68-14.23,1.92-18.4,.72-5.24,.72-5.24h-.64s1.75-11.93,3.75-14.65,3.79-3.28,10.82-5.88c0,0,2.47-.81,2.34-4.22,0,0-1.15-.3-2.09-3.88,0,0-1.28-.47-1.58-2.43s.6-1.83,.6-1.83v-3.83s.55-5.45,6.94-5.45,6.86,5.58,6.86,5.58v3.32s.68,.21,.72,.94-.38,3.32-1.28,3.62c0,0-.85,3.71-2.43,4.43v1.36s.47,2,3.71,3.02,8.6,2.73,10.09,7.58,2.6,12.22,2.6,12.22l-.43,.26,.43,3.07s2.64,10.39,3.15,16.57c0,0,.43,.64,.85-.17s1.19-6.3,2.94-9.75,1.58-15.72,5.32-18.44,7.54-1.15,8.43-4.81v-1.53s.04-.72-.94-.77-2.64,.34-3.11-3.19l-.3-1.15-1.02-1.49s.17-.68,1.41-2.17v-2.98s.6-6.05,7.92-6.09,8.48,7.58,8.48,7.58l.34,7.07s1.19,5.71,5.15,4.86c0,0-.21,2.17-4.09,2.9v.38s3.71,.3,5.2,9.71,2.04,10.52,2.04,10.52c0,0,2.6,7.92,3.54,13.67,0,0,.17,.98,0,1.58,0,0,1.41,3.07,1.11,4.81l3.49,1.75s.81-.04,.89-.77,1.32-9.84,6.01-10.31,2.85-3.92,2.85-3.92c0,0-2.94,.72-3.83-1.79s-.68-2.73-.68-2.73l-.77-.21s.55-1.66,.98-2-1.06-6.35,3.75-7.96c4.81-1.62,9.54,.72,10.52,4.6,0,0,.13,.68,1.19,.21s5.45-.64,5.58,4.51c.13,5.15-1.75,10.73,1.83,10.9,0,0-.51,2.73-4.94-.13s.98-12.1-3.19-13.12c0,0-.04,5.58-5.58,7.41,0,0-.68,2.85,1.19,3.54s6.05,.38,7.92,10.82h-.47s2.39,8.39,1.96,12.52l-2.64,1.02s-.17-3.24-1.19-6.39-2.13-5.79-2.13-5.79c0,0-.81-.17-.55,.47s-.26,4.98,.89,8.69,.77,4.09,.77,4.09l-18.1,6.9s1.79-10.73,2.51-12.9,.51-6.47,.34-6.98-.81-.43-.98,.21-.68,3.92-3.41,3.96c0,0-.77,.89-5.28-4.43,0,0-1.96,1.06-2.94-.98-.98-2.04-.72-3.41-.13-5.2s-1.62-2.51-4.17-10.31-3.02-10.78-3.75-11.24-.72,.81-.72,.81c0,0-2,7.11-.04,11.76s5.32,25.17,5.32,25.17l1.36,7.79-7.07,1.53-.38,6.77-7.37,1.96-.38-7.88-1.92-.21-.51,9.07-7.03,1.24-.72-11.03-7.37-1.24s4.22-20.4,4.22-21.34,2.98-10.69,3.36-13.42-.17-9.46-.64-10.48-.94,.98-1.28,2.85-2.39,9.67-7.45,16.53c0,0,1.41,5.45-3.07,6.64,0,0-3.28,.26-2.21-6.64,0,0-7.07-15.72-7.92-23h-.72s-.34,19.93,.51,23.38l-.64,.34-1.1,42.29-8.45,1.13-1.86-35.39h-1.29l-2.01,35.39h-8.31l-1.15-42.98-.86-.43s1.72-12.75,1-23.78h-1.29s-.32,1.36-1.07,5.87-4.62,16.82-4.62,16.82c0,0,1.24,4.3,1.07,5.53s-.75,3.65-3.06,2.95c0,0-.86-.64-1.29-.05s-4.3,4.46-6.5,4.84-2.63-4.57-3.33-2.31l.91,13.59-.64,.05,.59,20.79-5.75-.54-1.77-13.48-.75,.05-1.56,13.11-5.86-1.16Z"
      fill="#ffffff"
    />
  </g>
  <!-- Teal 4-pointed sparkle (brand accent, matches logo stars) -->
  <path d="M80,10 L82,16 L88,18 L82,20 L80,26 L78,20 L72,18 L78,16 Z" fill="#30bac6"/>
</svg>
